<svg width="16" height="18" viewBox="0 0 16 18" fill="none" xmlns="http://www.w3.org/2000/svg">
<g opacity="0.6" clip-path="url(#clip0_3_226)">
<path d="M14.4174 4.53226C14.4174 4.53226 14.5783 4.808 14.9002 5.35948C15.222 5.91096 15.3829 6.83972 15.3829 8.14577C15.3829 9.45182 15.0611 10.6563 14.4174 11.7593C13.7738 12.8622 12.9005 13.7355 11.7975 14.3792C10.6946 15.0228 9.49005 15.3447 8.184 15.3447C6.87795 15.3447 5.67345 15.0228 4.5705 14.3792C3.46754 13.7355 2.59424 12.8622 1.95058 11.7593C1.30693 10.6563 0.985107 9.45182 0.985107 8.14577C0.985107 6.83972 1.30693 5.63522 1.95058 4.53226C2.59424 3.4293 3.46754 2.556 4.5705 1.91235C5.67345 1.2687 6.87795 0.946873 8.184 0.946873C9.49005 0.946873 10.6946 1.2687 11.7975 1.91235C12.9005 2.556 13.7738 3.4293 14.4174 4.53226Z" fill="#00FF92"/>
</g>
<defs>
<clipPath id="clip0_3_226">
<rect width="14.3978" height="17.3307" fill="white" transform="matrix(1 0 0 -1 0.985107 17.668)"/>
</clipPath>
</defs>
</svg>
